<?xml version="1.0" standalone="no"?>
<!DOCTYPE svg PUBLIC "-//W3C//DTD SVG 20010904//EN"
 "http://www.w3.org/TR/2001/REC-SVG-20010904/DTD/svg10.dtd">
<svg version="1.0" xmlns="http://www.w3.org/2000/svg"
 width="253.000000pt" height="199.000000pt" viewBox="0 0 253.000000 199.000000"
 preserveAspectRatio="xMidYMid meet">

<g transform="translate(0.000000,199.000000) scale(0.100000,-0.100000)"
fill="#000000" stroke="none">
<path d="M730 1685 c0 -51 -2 -55 -24 -55 -29 0 -41 -26 -18 -39 34 -19 52 5
52 69 0 62 13 78 30 38 6 -17 9 -18 9 -6 1 18 -24 48 -40 48 -5 0 -9 -25 -9
-55z"/>
<path d="M538 1643 c-14 -3 -18 -15 -18 -49 0 -37 -3 -44 -20 -44 -13 0 -20
-7 -20 -20 0 -11 6 -20 13 -20 25 0 37 24 37 72 l0 48 35 0 c33 0 35 -2 35
-34 0 -25 -5 -35 -20 -39 -29 -7 -26 -39 3 -35 20 3 22 9 25 66 l3 62 -28 -1
c-15 -1 -36 -3 -45 -6z"/>
<path d="M650 1461 c0 -5 7 -12 16 -15 14 -5 15 -4 4 9 -14 17 -20 19 -20 6z"/>
<path d="M2064 1438 c6 -18 -12 -23 -74 -20 -23 1 -23 1 -5 -8 16 -7 17 -9 3
-9 -20 -1 -48 -38 -48 -64 0 -29 47 -70 75 -64 14 2 22 0 19 -5 -3 -5 13 -8
38 -6 l43 3 3 73 c2 62 0 73 -15 79 -10 4 -24 14 -31 22 -12 14 -13 14 -8 -1z
m0 -44 c6 -15 4 -15 -11 -3 -10 7 -20 15 -22 16 -2 2 3 3 11 3 9 0 19 -7 22
-16z m-28 -30 c22 -23 32 -54 19 -54 -3 0 -18 8 -33 17 l-27 17 19 -22 c11
-12 16 -22 12 -22 -11 0 -66 53 -66 64 0 6 5 5 12 -2 20 -20 32 -13 13 8 -18
19 -17 20 5 20 12 0 33 -11 46 -26z"/>
<path d="M617 1383 c-13 -12 -7 -23 13 -23 11 0 20 7 20 15 0 15 -21 21 -33 8z"/>
<path d="M606 1229 c-21 -30 -20 -42 4 -70 l19 -24 1 23 c0 13 4 20 10 17 6
-3 10 -17 10 -29 0 -32 24 -51 47 -37 10 6 14 11 9 11 -5 0 -3 7 4 14 10 13 7
15 -16 13 -39 -3 -43 26 -8 58 32 30 29 35 -24 42 -33 4 -42 2 -56 -18z"/>
<path d="M330 1164 c13 -22 40 -69 60 -107 20 -37 40 -64 44 -60 5 5 5 -2 2
-14 -10 -32 13 -40 35 -12 10 13 19 19 19 13 0 -6 -7 -17 -15 -24 -8 -7 -15
-22 -14 -34 1 -28 27 -96 28 -73 1 9 5 17 10 17 5 0 11 6 14 13 2 6 2 3 0 -8
-3 -11 -7 -35 -10 -52 -5 -29 -23 -48 -23 -24 0 13 -129 105 -137 98 -3 -3 2
-13 11 -22 37 -37 67 -86 125 -202 33 -67 65 -124 71 -128 5 -3 10 -15 10 -26
0 -15 -13 -26 -50 -42 -33 -14 -50 -27 -50 -38 0 -30 18 -31 85 -9 l64 21 51
-38 c33 -24 53 -48 57 -65 3 -15 11 -29 19 -32 11 -4 14 8 15 57 0 44 3 56 9
42 8 -18 9 -18 9 -2 1 10 -3 26 -9 36 -8 15 -6 17 15 13 l25 -4 0 121 c0 67
-5 131 -10 142 -7 13 -7 19 0 19 5 0 10 7 10 17 0 15 -1 15 -18 0 -21 -19 -42
-22 -42 -7 0 6 5 10 10 10 6 0 10 4 10 8 0 5 -40 9 -90 8 -83 -1 -90 -3 -91
-21 -1 -11 -2 -39 -3 -63 -3 -53 -21 -76 -34 -41 -5 13 -7 40 -5 60 3 24 0 41
-11 51 -11 12 -13 23 -6 49 26 101 29 134 13 166 -8 18 -20 30 -26 26 -6 -3
-7 -1 -3 6 8 13 -132 159 -174 181 l-23 13 23 -39z m138 -160 c-3 -14 -5 -12
-10 9 -3 19 -2 25 4 19 6 -6 8 -18 6 -28z m52 -65 c0 -5 -4 -9 -10 -9 -5 0
-10 7 -10 16 0 8 5 12 10 9 6 -3 10 -10 10 -16z m-27 -49 c-3 -11 -7 -20 -9
-20 -2 0 -4 9 -4 20 0 11 4 20 9 20 5 0 7 -9 4 -20z m220 -137 c-7 -2 -19 -2
-25 0 -7 3 -2 5 12 5 14 0 19 -2 13 -5z m4 -19 c-3 -3 -12 -4 -19 -1 -8 3 -5
6 6 6 11 1 17 -2 13 -5z m53 -54 c0 -22 -4 -40 -9 -40 -5 0 -11 18 -13 40 -2
28 0 40 9 40 8 0 13 -14 13 -40z m-66 -17 c-9 -65 -14 -67 -14 -5 0 30 4 52
11 52 7 0 8 -16 3 -47z m-29 -49 c15 -24 16 -33 4 -86 -11 -47 -18 -60 -36
-64 -12 -3 -28 -4 -35 -1 -7 3 -1 6 15 6 27 1 27 2 23 54 -2 28 -1 41 1 28 8
-44 20 -3 13 44 -4 25 -6 45 -5 45 2 0 10 -12 20 -26z m92 -46 c-2 -13 -4 -3
-4 22 0 25 2 35 4 23 2 -13 2 -33 0 -45z"/>
<path d="M1818 1188 c-26 -9 -46 -43 -34 -55 3 -4 6 1 6 11 0 16 2 16 26 -3
14 -11 32 -17 41 -14 13 5 15 3 8 -13 -4 -10 -10 -35 -13 -56 -3 -30 0 -37 17
-43 13 -4 24 -20 31 -45 13 -49 34 -70 69 -70 34 0 51 18 54 57 2 24 -4 31
-47 53 -54 28 -64 45 -65 106 -1 65 -37 93 -93 72z"/>
<path d="M1776 1075 c9 -48 26 -87 34 -78 4 4 10 20 14 36 5 19 3 27 -8 27 -7
0 -21 10 -30 23 -16 22 -16 22 -10 -8z"/>
<path d="M1271 1044 c0 -11 3 -14 6 -6 3 7 2 16 -1 19 -3 4 -6 -2 -5 -13z"/>
<path d="M946 1019 c-10 -27 -25 -104 -21 -107 2 -2 11 21 20 53 9 31 14 59
11 62 -3 3 -8 0 -10 -8z"/>
<path d="M1561 895 c0 -5 6 -21 14 -35 8 -14 14 -20 14 -15 0 6 -6 21 -14 35
-8 14 -14 21 -14 15z"/>
<path d="M1591 825 c1 -19 18 -51 18 -35 0 8 -4 22 -9 30 -5 8 -9 11 -9 5z"/>
<path d="M760 805 c0 -8 4 -15 10 -15 5 0 7 7 4 15 -4 8 -8 15 -10 15 -2 0 -4
-7 -4 -15z"/>
<path d="M2260 803 c-8 -3 -28 -15 -43 -26 -28 -19 -29 -19 -62 -1 -40 21 -49
16 -98 -55 -38 -57 -46 -62 -78 -55 -26 5 -27 4 -22 -40 4 -30 2 -46 -5 -46
-19 0 -32 36 -32 88 0 49 0 49 -37 56 -64 10 -120 7 -121 -6 0 -7 -5 -26 -10
-43 l-10 -30 -1 32 c-1 17 5 34 12 36 9 4 9 6 0 6 -7 1 -10 8 -7 16 4 8 2 15
-4 15 -7 0 -11 -65 -12 -180 0 -141 2 -180 12 -180 10 0 10 -2 -1 -9 -9 -6
-10 -10 -1 -13 7 -2 2 -14 -14 -31 l-25 -27 -236 0 -235 0 0 -25 0 -25 248 2
247 3 3 32 c3 34 8 38 30 25 9 -7 10 -15 3 -35 -8 -21 -7 -27 2 -27 24 0 37
24 37 65 0 23 7 50 16 61 8 10 13 13 9 7 -4 -8 1 -13 14 -13 11 0 26 10 32 23
l12 22 -23 -20 -23 -20 7 23 c4 12 3 22 -2 22 -5 0 -9 28 -8 63 0 34 -3 100
-8 145 l-9 84 24 -4 c17 -2 25 -10 27 -28 1 -14 9 -66 18 -116 13 -72 14 -96
5 -115 -11 -21 -11 -22 2 -6 15 18 28 23 26 10 -3 -20 2 -34 11 -28 6 3 10 2
10 -4 0 -5 -5 -13 -11 -16 -6 -4 -8 -14 -4 -22 5 -14 3 -14 -11 -2 -16 13 -16
12 -4 -8 10 -15 18 -19 26 -12 7 6 16 4 24 -6 7 -9 8 -15 2 -15 -6 0 -13 6
-16 13 -3 6 -5 3 -3 -7 3 -27 20 -30 45 -9 l22 18 -36 55 -35 55 46 6 c50 5
68 22 61 54 -8 32 5 42 69 49 86 10 95 14 95 42 0 17 17 40 55 76 55 51 65 74
43 96 -13 13 -24 14 -48 5z m-200 -127 c0 -2 -8 -10 -17 -17 -16 -13 -17 -12
-4 4 13 16 21 21 21 13z m-75 -35 c3 -5 1 -12 -5 -16 -5 -3 -10 1 -10 9 0 18
6 21 15 7z m-50 -71 c3 -5 1 -10 -4 -10 -6 0 -11 5 -11 10 0 6 2 10 4 10 3 0
8 -4 11 -10z m-188 -42 c-3 -8 -6 -5 -6 6 -1 11 2 17 5 13 3 -3 4 -12 1 -19z"/>
<path d="M1420 628 c15 -18 12 -39 -7 -60 -16 -18 -16 -18 0 -12 25 9 33 53
13 70 -9 8 -11 9 -6 2z"/>
<path d="M1841 454 c0 -11 3 -14 6 -6 3 7 2 16 -1 19 -3 4 -6 -2 -5 -13z"/>
<path d="M384 398 c4 -13 9 -35 12 -50 9 -39 24 -35 24 6 0 45 -9 66 -27 66
-11 0 -14 -6 -9 -22z"/>
<path d="M762 345 c0 -36 2 -45 9 -33 6 11 6 30 1 50 -9 31 -9 31 -10 -17z"/>
<path d="M730 292 c0 -5 7 -16 16 -23 14 -12 16 -11 13 5 -4 20 -29 35 -29 18z"/>
<path d="M2016 284 c-19 -19 -39 -54 -34 -60 8 -7 78 58 73 67 -9 13 -21 11
-39 -7z"/>
<path d="M778 243 c-41 -10 -4 -33 55 -33 30 0 37 15 10 23 -10 2 -25 7 -33
10 -8 2 -23 3 -32 0z"/>
<path d="M1673 233 c-42 -8 -24 -23 27 -23 38 0 50 4 50 15 0 15 -27 18 -77 8z"/>
</g>
</svg>
